<svg width="900" height="900" viewBox="0 0 900 900" fill="none" xmlns="http://www.w3.org/2000/svg">
<g clip-path="url(#clip0_81_2)">
<rect width="900" height="900" rx="23" fill="white"/>
<path d="M45 136.5V122.5H143.5C209.167 122.833 244.167 123.333 248.5 124C254.5 125 261 126.333 268 128C299.667 137.333 322.333 155 336 181C342.333 193 345.833 205.5 346.5 218.5C346.833 232.167 344 245.167 338 257.5C325.667 283.167 304 301.167 273 311.5C269 312.833 265.167 314 261.5 315C253.167 317 239.333 318.167 220 318.5C208.333 318.5 201.333 318.5 199 318.5H153.5V375C153.5 413 153.667 432.167 154 432.5C155.333 434.833 167.667 436 191 436H205V450V464H199.5L159.5 463C136.5 462.667 113.5 462.667 90.5 463L50.5 464H45V450V436H59C82.3333 436 94.6667 434.833 96 432.5V154C94.6667 151.667 82.3333 150.5 59 150.5H45V136.5ZM233.5 151.5C231.167 151.167 218.5 150.833 195.5 150.5C170.167 150.5 156.5 151 154.5 152C153.167 152.667 152.333 156.833 152 164.5C152 170.833 152 190.667 152 224V293H190C217.667 292.667 235 291.667 242 290C262 285.667 274.333 275.333 279 259C281 253 282 240.667 282 222C282.333 205.667 281.667 193.833 280 186.5C277.667 177.5 273.333 170.333 267 165C259 158.333 247.833 153.833 233.5 151.5Z" fill="black"/>
<path d="M358 136.5V122.5H362.5L395 123.5C413.667 123.833 434.5 123.833 457.5 123.5L497.5 122.5H503V136.5V150.5H495C473 150.5 461.667 151.833 461 154.5C460.667 154.833 466 172.333 477 207L513 320.5L532.5 382L592.5 192.5L586.5 173.5C582.167 160.167 578.667 153 576 152C573 151 563.667 150.5 548 150.5H536.5V136.5V122.5H541L573.5 123.5C592.167 123.833 613 123.833 636 123.5L676 122.5H681.5V136.5V150.5H673.5C651.5 150.5 640.167 151.833 639.5 154.5L711 382L778.5 167.5C778.5 160.833 771.167 155.833 756.5 152.5C753.167 151.833 749.833 151.333 746.5 151C744.5 150.667 741.833 150.5 738.5 150.5H735.5V136.5V122.5H740C739.667 122.5 751.167 122.833 774.5 123.5C794.5 123.833 811.667 123.833 826 123.5L850.5 122.5H853.5V136.5V150.5H846C822.667 151.5 809 157.833 805 169.5L757 321C725.333 420.667 709.167 470.833 708.5 471.5C707.5 473.833 703 475 695 475C687.333 475 682.667 473.833 681 471.5C680.333 470.5 667.667 430.667 643 352L606 234L568.5 352.5C544.167 429.167 531.333 469 530 472C529 473 528.167 473.667 527.5 474C526.5 474.667 522.833 475 516.5 475C508.833 475 504.333 473.833 503 471.5C502.333 470.833 485.333 417.833 452 312.5C419 208.167 401.667 155 400 153C399.667 152.667 398.833 152.333 397.5 152C394.5 151 385.167 150.5 369.5 150.5H358V136.5Z" fill="black"/>
<path d="M232.4 395.8C255.333 394.2 266.267 393.4 265.2 393.4H266.8V513C266.8 593.267 266.933 633.8 267.2 634.6C268.267 641.267 271.6 645.4 277.2 647C280.133 647.8 284.667 648.333 290.8 648.6H298V659.8V671L232.4 675.4H229.2V665.4V655.4L226.4 657.8C208.533 670.333 189.467 676.2 169.2 675.4C160.4 675.133 151.867 673 143.6 669C135.067 664.733 127.6 659.4 121.2 653C103.067 634.067 94.4 610.2 95.2 581.4C96 566.733 99.2 553.4 104.8 541.4C109.6 532.067 115.067 524.2 121.2 517.8C127.867 511.133 135.333 505.8 143.6 501.8C149.467 498.867 155.467 496.733 161.6 495.4C164.533 494.867 169.2 494.6 175.6 494.6C184.4 494.6 192.533 495.533 200 497.4C209.6 499.8 218.4 503.533 226.4 508.6C228.8 509.933 230.133 510.733 230.4 511L230 433.8C228.933 427.4 225.6 423.4 220 421.8C217.067 421 212.533 420.467 206.4 420.2H199.2V409V397.8H200L232.4 395.8ZM196.8 513.8C188.267 512.467 180.133 512.867 172.4 515C158.267 519 148.667 527.533 143.6 540.6C140.133 549.667 138.4 564.467 138.4 585C138.4 606.6 140.267 622.067 144 631.4C148.533 643.4 157.733 651.4 171.6 655.4C173.733 655.933 177.2 656.2 182 656.2C187.067 656.2 190.4 656.067 192 655.8C206.667 652.6 218.533 644.6 227.6 631.8L229.2 629.4V581.8V534.2L226.8 531.4C218.8 522.067 208.8 516.2 196.8 513.8ZM394.266 492.6C418.266 489.667 439.999 496.333 459.466 512.6C461.332 514.2 463.066 515.8 464.666 517.4C468.666 521.4 471.066 524.067 471.866 525.4C489.199 547.533 495.732 572.333 491.466 599.8C491.199 601.133 490.932 602.467 490.666 603.8C485.866 628.6 472.666 647.8 451.066 661.4C443.066 666.467 434.399 670.2 425.066 672.6C418.932 674.2 411.999 675 404.266 675C396.266 675 389.199 674.2 383.066 672.6C357.999 666.2 339.199 651.8 326.666 629.4C319.199 615.8 315.466 601.133 315.466 585.4C315.466 565.933 320.666 548.467 331.066 533C346.532 509.267 367.599 495.8 394.266 492.6ZM410.666 511C395.732 508.867 383.199 512.6 373.066 522.2C365.066 529.4 360.532 541.533 359.466 558.6C359.199 559.667 359.066 560.867 359.066 562.2C357.999 575.8 358.132 591.8 359.466 610.2C360.532 620.067 362.399 627.533 365.066 632.6C370.666 644.867 380.932 652.2 395.866 654.6C400.932 655.667 406.132 655.8 411.466 655C426.399 652.6 436.932 645.133 443.066 632.6C445.732 627.533 447.599 620.067 448.666 610.2C449.999 597.933 450.132 582.6 449.066 564.2C449.066 563.4 449.066 562.733 449.066 562.2C447.999 543.8 443.732 530.867 436.266 523.4C435.999 523.133 435.599 522.733 435.066 522.2C428.399 515.8 420.266 512.067 410.666 511ZM595.066 492.2C600.932 491.667 609.332 491.8 620.266 492.6C638.132 495 651.066 500.867 659.066 510.2C661.732 513.4 663.599 517.133 664.666 521.4C665.732 525.133 665.999 529.667 665.466 535C663.332 544.333 657.332 550.067 647.466 552.2C637.332 554.333 629.332 551.4 623.466 543.4C621.599 541 620.266 538.2 619.466 535C618.132 527 619.466 520.467 623.466 515.4C624.266 514.6 624.666 513.933 624.666 513.4C624.666 512.6 618.799 512.2 607.066 512.2C600.932 512.2 597.199 512.333 595.866 512.6C588.932 514.467 582.799 518.067 577.466 523.4C568.666 532.2 563.332 545.667 561.466 563.8C560.399 573.133 560.266 584.6 561.066 598.2C561.332 599.533 561.466 600.6 561.466 601.4C563.332 614.2 566.799 624.467 571.866 632.2C581.199 646.333 594.666 654.067 612.266 655.4C623.732 655.667 633.066 651.533 640.266 643C644.799 637.133 647.999 630.867 649.866 624.2C650.666 621.533 651.732 620.067 653.066 619.8C654.132 619.533 656.532 619.4 660.266 619.4H667.866L669.066 620.6C670.399 621.933 670.266 624.6 668.666 628.6C667.332 633.4 664.532 639.4 660.266 646.6C646.399 666.6 626.666 676.2 601.066 675.4C588.266 674.6 576.532 671.533 565.866 666.2C539.466 652.6 523.599 629.933 518.266 598.2C517.199 591.8 517.066 583.8 517.866 574.2C518.132 573.4 518.266 572.733 518.266 572.2C521.466 547.133 532.399 526.733 551.066 511C564.132 500.6 578.799 494.333 595.066 492.2ZM751.6 492.2C752.133 491.933 755.333 491.8 761.2 491.8C771.867 492.067 781.2 494.067 789.2 497.8L794 500.6L800.4 496.2L806.4 491.8H810C812.4 491.8 814 492.2 814.8 493L816 494.2V519.8V545.4L814.8 546.6L813.6 547.8H806H798.4L797.2 546.6C796.4 545.8 796 544.067 796 541.4C794.667 524.6 786 514.2 770 510.2C764.133 509.133 756.8 509 748 509.8C747.2 510.067 746.533 510.2 746 510.2C732.667 513.133 725.6 520.067 724.8 531C724.267 539 728 545.4 736 550.2C740 552.6 748.4 555.133 761.2 557.8C772.4 559.933 778.533 561.267 779.6 561.8C796.933 566.067 809.867 575.533 818.4 590.2C818.933 591.267 819.467 592.2 820 593C823.733 600.733 825.733 608.067 826 615C826.533 630.733 822.667 643.667 814.4 653.8C808.533 661.8 799.867 667.667 788.4 671.4C772.667 676.733 757.067 677.267 741.6 673C733.867 670.6 727.6 667.4 722.8 663.4L720.8 662.2L713.6 667.8C706.667 672.867 702.533 675.4 701.2 675.4C698.8 675.4 697.2 675 696.4 674.2L695.2 673V642.6C695.2 621 695.867 609.8 697.2 609C697.733 608.733 700.533 608.6 705.6 608.6C711.2 608.6 714.267 609.267 714.8 610.6C715.067 611.133 715.467 612.6 716 615C723.733 646.2 741.467 659.8 769.2 655.8C783.067 654.2 791.733 647.933 795.2 637C795.733 635.4 796 632.733 796 629C796 625.267 795.733 622.6 795.2 621C793.6 615.667 789.733 610.867 783.6 606.6C779.333 603.667 770.667 600.867 757.6 598.2C742.667 595.533 732 592.467 725.6 589C719.467 586.067 714.133 582.333 709.6 577.8C705.6 573.8 702.267 569.133 699.6 563.8C696.933 558.2 695.467 552.333 695.2 546.2C694.933 538.2 696.667 529.933 700.4 521.4C702.8 516.6 705.6 512.6 708.8 509.4C717.067 500.333 729.6 494.733 746.4 492.6C747.733 492.333 749.467 492.2 751.6 492.2Z" fill="black"/>
<rect x="2" y="2" width="896" height="896" rx="21" stroke="black" stroke-width="4"/>
<line x1="98" y1="736.5" x2="822" y2="736.5" stroke="black" stroke-width="10"/>
<line x1="97.9961" y1="761.524" x2="719.996" y2="761.524" stroke="black" stroke-width="10"/>
<line x1="97.998" y1="786" x2="617.998" y2="786" stroke="black" stroke-width="10"/>
</g>
<defs>
<clipPath id="clip0_81_2">
<rect width="900" height="900" rx="23" fill="white"/>
</clipPath>
</defs>
</svg>
